<?xml version="1.0" standalone="no"?>
<!DOCTYPE svg PUBLIC "-//W3C//DTD SVG 20010904//EN"
 "http://www.w3.org/TR/2001/REC-SVG-20010904/DTD/svg10.dtd">
<svg version="1.0" xmlns="http://www.w3.org/2000/svg"
 width="500.000000pt" height="500.000000pt" viewBox="0 0 500.000000 500.000000"
 preserveAspectRatio="xMidYMid meet">

<g transform="translate(0.000000,500.000000) scale(0.100000,-0.100000)"
fill="#000000" stroke="none">
<path d="M0 2500 l0 -2500 2500 0 2500 0 0 2500 0 2500 -2500 0 -2500 0 0
-2500z m2075 595 c85 -6 193 -19 243 -30 22 -5 23 -7 20 -133 l-3 -127 -25 2
c-14 0 -88 7 -165 13 -152 13 -332 7 -393 -14 -44 -15 -78 -60 -87 -116 -4
-22 -10 -40 -15 -40 -11 0 8 80 28 114 9 16 35 38 57 50 37 19 56 21 230 21
105 0 227 -3 273 -8 l82 -7 0 115 c0 111 -1 115 -22 120 -70 15 -193 26 -348
31 -277 10 -420 -24 -509 -122 -91 -98 -116 -213 -116 -534 0 -187 4 -252 18
-319 41 -189 120 -268 303 -300 160 -28 397 -23 609 12 l70 12 5 210 6 210 2
-216 2 -217 -62 -11 c-144 -24 -297 -34 -457 -28 -329 12 -430 75 -489 305
-13 55 -17 116 -17 337 0 356 19 444 117 551 68 73 163 109 333 124 88 7 123
7 310 -5z m976 -202 c67 -109 128 -208 137 -220 8 -13 10 -23 5 -23 -4 0 -68
97 -142 215 l-133 215 -159 0 -159 0 0 -215 c0 -137 -4 -215 -10 -215 -6 0
-10 80 -10 220 l0 220 174 0 174 0 123 -197z m609 -453 l0 -650 -154 0 -154 0
-137 226 c-76 124 -135 227 -132 230 3 3 65 -94 138 -215 l134 -221 148 0 147
0 0 635 0 636 -147 -3 -148 -3 -5 -215 -6 -215 -2 223 -2 222 160 0 160 0 0
-650z m-2185 51 c-25 -5 -30 -11 -30 -36 0 -23 5 -31 23 -33 24 -4 32 22 10
31 -8 3 -6 6 5 6 12 1 17 -7 17 -25 0 -23 -3 -25 -32 -22 -28 3 -34 7 -36 31
-5 45 4 57 40 56 l33 -1 -30 -7z m163 -18 c5 -16 13 -37 17 -48 7 -16 6 -18
-6 -7 -7 6 -23 12 -36 12 -13 0 -23 -6 -24 -12 0 -8 -2 -9 -5 -2 -6 14 24 84
35 84 5 0 14 -12 19 -27z m131 0 l20 -28 1 28 c0 15 5 27 10 27 6 0 10 -20 10
-45 0 -53 -11 -57 -39 -12 l-21 32 0 -32 c0 -18 -4 -33 -10 -33 -5 0 -10 20
-10 45 0 52 10 56 39 18z m164 20 c-13 -2 -23 -11 -23 -19 0 -8 10 -15 23 -15
l22 -2 -22 -4 c-13 -2 -23 -11 -23 -18 0 -7 10 -16 23 -18 16 -3 13 -5 -10 -6
-33 -1 -33 0 -33 44 0 44 0 45 33 44 23 -1 26 -3 10 -6z m134 0 c-33 -5 -31
-25 4 -33 22 -5 25 -11 21 -40 -1 -5 -17 -9 -34 -9 -31 2 -31 2 -5 6 33 5 36
30 5 35 -15 2 -24 11 -26 26 -3 19 1 22 30 21 31 -2 31 -2 5 -6z m148 -33 c17
0 25 7 28 23 2 12 4 0 4 -28 0 -27 -2 -40 -4 -27 -3 15 -11 22 -28 22 -17 0
-25 -7 -28 -22 -2 -13 -4 0 -4 27 0 28 2 40 4 28 3 -16 11 -23 28 -23z m244
13 l20 -28 1 28 c0 15 5 27 10 27 6 0 10 -20 10 -45 0 -53 -11 -57 -39 -12
l-21 32 0 -32 c0 -18 -4 -33 -10 -33 -5 0 -10 20 -10 45 0 52 10 56 39 18z
m141 -18 c0 -25 -4 -45 -10 -45 -5 0 -10 20 -10 45 0 25 5 45 10 45 6 0 10
-20 10 -45z m133 38 c-8 -2 -13 -22 -13 -44 0 -21 -4 -39 -10 -39 -5 0 -10 18
-10 39 0 29 -5 41 -17 44 -10 3 0 5 22 5 22 0 34 -2 28 -5z m143 -28 c7 -19
14 -40 13 -47 0 -10 -2 -10 -6 0 -6 14 -53 17 -53 2 0 -5 -4 -10 -9 -10 -6 0
-3 20 6 45 8 25 19 45 24 45 6 0 17 -16 25 -35z m132 -48 c24 -4 24 -4 -5 -6
l-33 -1 2 48 1 47 4 -42 c4 -36 7 -42 31 -46z m112 38 c0 -25 -4 -45 -10 -45
-5 0 -10 20 -10 45 0 25 5 45 10 45 6 0 10 -20 10 -45z m101 5 c5 0 14 9 21
20 7 11 17 20 22 20 5 0 1 -9 -8 -19 -17 -18 -17 -21 0 -48 l18 -28 -25 23
c-14 12 -28 22 -31 22 -4 0 -9 -10 -11 -22 -2 -13 -4 0 -4 27 0 28 2 40 4 28
2 -13 9 -23 14 -23z m185 5 c7 -19 14 -40 13 -47 0 -10 -2 -10 -6 0 -6 14 -53
17 -53 2 0 -5 -4 -10 -9 -10 -6 0 -3 20 6 45 8 25 19 45 24 45 6 0 17 -16 25
-35z m159 -12 c0 -45 -9 -57 -18 -23 -7 27 -25 25 -37 -2 -7 -19 -9 -14 -9 25
l-1 48 33 -3 c31 -3 32 -5 32 -45z m-1905 -229 c0 -46 22 -102 49 -127 40 -37
84 -47 202 -47 l109 0 0 100 c0 60 4 100 10 100 6 0 10 -41 10 -104 l0 -103
-51 -7 c-58 -8 -177 1 -229 16 -45 13 -87 53 -99 92 -17 56 -22 106 -11 106 5
0 10 -12 10 -26z m940 -194 l0 -220 145 0 145 0 0 220 c0 140 4 220 10 220 6
0 10 -83 10 -230 l0 -230 -165 0 -165 0 0 230 c0 147 4 230 10 230 6 0 10 -80
10 -220z"/>
<path d="M1610 2466 c0 -9 5 -16 10 -16 6 0 10 4 10 9 0 6 -4 13 -10 16 -5 3
-10 -1 -10 -9z"/>
<path d="M2845 2470 c-8 -13 -1 -24 14 -19 6 3 7 10 2 18 -6 10 -10 10 -16 1z"/>
<path d="M3375 2470 c-8 -13 -1 -24 14 -19 6 3 7 10 2 18 -6 10 -10 10 -16 1z"/>
<path d="M3510 2476 c0 -11 9 -16 26 -16 31 0 28 23 -4 28 -15 2 -22 -2 -22
-12z"/>
</g>
</svg>
